<svg width="136" height="64" viewBox="0 0 136 64" fill="none" xmlns="http://www.w3.org/2000/svg">
<path d="M108.38 41.71H102.85V59.96H108.37C108.37 58.5 108.37 47.23 108.37 41.71H108.38Z" fill="white"/>
<path d="M54.5399 38.11H21.6299L22.9499 34.85H34.4699H34.4799L40.3999 34.86L49.2799 34.87H49.2899L54.5399 38.11Z" fill="white"/>
<path d="M87.0299 34.8099V34.8399H86.6399V34.7999L87.0299 34.8099Z" fill="white"/>
<path d="M89.94 34.8099H89.47V34.8399H89.94V34.8099Z" fill="white"/>
<path d="M102.87 38.11L89.47 38.09H89.96V45.88H86.66V38.09H75.85L72.54 34.79H86.64V34.83H87.02V34.8H86.64V27.04H89.93V34.8H89.46V34.83H89.93V34.8L102.86 34.83L108.74 34.8C120.16 34.75 122.4 32.11 124.4 29.77C126.84 26.89 127.09 22.91 126.59 19.27C125.92 14.31 123.09 11.15 118.18 10.4C115.43 9.96999 112.58 10.14 109.77 10.05C109.32 10.03 108.87 10.05 108.41 10.05L108.39 31.01H102.84L102.86 6.59999H104.29C108.43 6.59999 112.56 6.56999 116.7 6.61999C119.7 6.64999 122.63 7.16999 125.38 8.45999C129.46 10.38 131.86 13.56 132.59 17.98C133.52 23.59 132 28.93 127.68 32.72C124.61 35.41 118.92 38.07 108.4 38.07L102.86 38.09L102.87 38.11Z" fill="white"/>
<path d="M87.0299 34.8099V34.8399H86.6399V34.7999L87.0299 34.8099Z" fill="white"/>
<path d="M89.94 34.8099H89.47V34.8399H89.94V34.8099Z" fill="white"/>
<path d="M38.76 31H32.84C30.85 26.31 28.88 21.64 26.86 16.88C24.32 22.53 21.85 28.09 19.37 33.65L19.05 34.36L18.82 34.84C18.34 35.92 17.84 37.02 17.35 38.1C17.21 38.42 17.08 38.71 16.93 39.03L15.3 42.67C12.76 48.42 10.18 54.15 7.61 59.9H3.5C11.58 41.65 19.6 23.46 27.76 5.08997C31.45 13.75 35.08 22.37 38.75 30.98L38.76 31Z" fill="white"/>
<path d="M40.4 34.86H34.48H40.4C40.4 34.86 40.4 34.86 40.4 34.88V34.86Z" fill="white"/>
<path d="M73.81 49.78C73.73 50.12 73.61 50.46 73.52 50.81C72.71 53.11 71.17 55.17 68.97 56.93C65.76 59.55 61.26 60.87 56.8 60.87C54.55 60.87 52.3 60.53 50.24 59.84C48.85 59.38 47.6 58.76 46.45 58.01C44.59 56.73 43.22 55.15 42.34 53.43C40.77 50.76 38.45 44.4 37.72 42.69L37.26 41.55H43.23C44.79 45.18 47.47 51.36 47.6 51.62C47.75 51.91 47.92 52.21 48.09 52.5C49.29 54.46 50.86 56.07 53.28 56.93C54.87 57.5 56.49 57.81 58.06 57.81C60.26 57.81 62.41 57.22 64.42 55.85C65.86 54.82 66.94 53.47 67.62 51.93C67.82 51.42 68.01 50.88 68.14 50.34C68.24 49.97 68.31 49.61 68.33 49.24C68.46 48.41 68.43 47.58 68.28 46.75C68.24 46.38 68.16 46.02 68.04 45.65C67.75 44.52 67.21 43.45 66.42 42.46C65.52 41.31 64.39 40.26 63.22 39.33C62.98 39.1 62.7 38.91 62.44 38.74C62.25 38.57 62.02 38.42 61.83 38.28C61.75 38.23 61.68 38.18 61.6 38.13C61.6 38.11 61.57 38.11 61.57 38.11C59.96 36.96 58.29 35.91 56.6 34.87L56.58 34.84C56.25 34.65 55.94 34.46 55.62 34.26C55.3 34.04 54.96 33.84 54.64 33.65C53.97 33.26 53.34 32.84 52.68 32.45C49.42 30.42 46.63 27.95 44.82 24.52C44.06 23.1 43.59 21.58 43.42 20.09C43.23 18.61 43.33 17.15 43.7 15.73C43.79 15.36 43.89 15 44.02 14.65C44.87 12.13 46.56 9.92998 49.02 8.28998C51.73 6.50998 55.11 5.59998 58.47 5.59998C61.83 5.59998 65.1 6.47998 67.79 8.26998C68.94 9.02998 69.97 9.99998 70.75 11.16V11.18C71.17 11.75 71.51 12.33 71.78 12.95C72.08 13.58 72.3 14.24 72.47 14.9C72.71 15.81 72.81 16.73 72.81 17.67C71.8 17.8 70.75 17.94 69.72 18.06C68.66 18.19 67.64 18.3 66.66 18.4C66.56 17.91 66.48 17.4 66.38 16.91C66.29 16.34 66.19 15.81 66.06 15.24C65.99 15 65.94 14.78 65.82 14.56C65.67 14.09 65.5 13.66 65.28 13.24C63.89 10.32 61.19 8.78998 57.62 8.78998H57.34C52.52 8.87998 49.85 11.75 49.09 15.13C49.04 15.35 49 15.6 48.97 15.81C48.82 16.74 48.82 17.67 48.95 18.6C49.04 19.23 49.19 19.89 49.38 20.5C49.61 21.14 49.87 21.73 50.21 22.29C51.83 25.01 54.27 26.82 56.85 28.45C59.57 30.19 62.25 31.9 64.9 33.67C65.2 33.84 65.49 34.04 65.78 34.25C66.07 34.45 66.36 34.64 66.66 34.83C66.68 34.83 66.68 34.86 66.68 34.86C67.21 35.21 67.76 35.58 68.26 35.94C69.17 36.57 70 37.31 70.74 38.09L70.77 38.11C70.96 38.3 71.14 38.53 71.29 38.72C71.46 38.92 71.63 39.11 71.75 39.31C72.46 40.29 73.03 41.34 73.39 42.51C73.54 42.88 73.63 43.27 73.73 43.66V43.74C73.81 44.03 73.86 44.3 73.91 44.57C74.23 46.43 74.18 48.14 73.78 49.76L73.81 49.78Z" fill="white"/>
</svg>
