<?xml version="1.0" encoding="UTF-8"?><svg id="Layer_1" xmlns="http://www.w3.org/2000/svg" viewBox="0 0 360.78 145.61"><g><path d="M183.79,91.95c-5.37-12.79-10.69-25.46-16.04-38.2,1.46,0,2.79,0,4.15,0,4.15,9.91,8.3,19.82,12.53,29.91,1.92-4.5,3.78-8.84,5.63-13.2-2.33-5.56-4.65-11.09-6.99-16.7,1.34,0,2.61,0,3.98,0,1.65,3.91,10.6,24.98,12.74,29.97,4.31-10.1,8.56-20.05,12.8-29.98,.96,0,1.88,0,2.92,0-5.46,12.72-10.9,25.37-16.41,38.19-2.52-6.11-4.98-12.05-7.49-18.15-2.63,6.11-5.19,12.07-7.81,18.15Z" style="fill:#000222;"/><path d="M130.48,90.86s0-25.33,0-38.13c9.19,10.1,18.29,20.1,27.52,30.24,0-9.84,0-28.86,0-28.86l2.88-.34s0,25.32,0,38.12c-9.18-10.1-18.28-20.11-27.52-30.28,0,9.88,0,28.91,0,28.91l-2.88,.34Z" style="fill:#000222;"/><path d="M221.23,54.11l3.8-.34s0,11.06,0,16.64c7.32,0,13.42,0,20.76,0,0-5.54,0-16.3,0-16.3l3.84-.34v36.75s-3.81,.34-3.81,.34c0,0,0-11.78,0-17.74-7.32,0-13.43,0-20.75,0,0,5.91,0,17.41,0,17.41l-3.83,.34V54.11Z" style="fill:#000222;"/><path d="M117.23,54.1l2.91-.34s.04,14.89,.03,21.97c0,2.63-.26,5.23-1.16,7.74-1.71,4.76-5.18,7.31-10.12,7.96-2.68,.35-5.34,.23-7.93-.58-4.3-1.34-6.85-4.33-7.78-8.68-.32-1.51-.46-3.09-.47-4.64-.05-7.69,.01-23.43,.01-23.43l3.8-.34s-.04,15.52,.05,22.85c.02,1.85,.31,3.75,.78,5.54,.84,3.21,2.95,5.26,6.29,5.92,2.55,.5,5.1,.53,7.57-.36,3.21-1.17,4.9-3.68,5.57-6.9,.27-1.3,.42-2.64,.42-3.97,.04-7.4,.02-22.75,.02-22.75Z" style="fill:#000222;"/><path d="M22.37,61.43c-1.47,.19-2.88,.36-4.33,.54-.12-.72-.2-1.44-.36-2.13-.57-2.49-2.38-4.23-4.66-4.52-3.1-.4-5.5,.59-6.62,2.87-1.19,2.44-.93,4.84,.61,7.06,1.07,1.55,2.58,2.64,4.16,3.64,2.41,1.53,4.83,3.03,7.19,4.62,1.7,1.15,3.19,2.55,4.09,4.45,1.55,3.28,.91,7.09-1.62,9.74-4.1,4.3-12,5.12-16.91,1.77C1.34,87.7-.16,84.6,.01,81.24c1.42-.17,2.86-.34,4.24-.5,.22,1.26,.34,2.47,.65,3.64,.99,3.73,3.95,5.11,7.42,4.98,1.92-.07,3.65-.65,5.03-2.04,2.6-2.61,2.59-6.8-.2-9.48-1.42-1.36-3.12-2.45-4.76-3.57-1.59-1.08-3.28-2-4.88-3.07-2.19-1.45-3.99-3.27-5.01-5.74-1.64-3.97-.31-8.04,3.43-10.61,3.57-2.46,9.62-2.37,13.1,.2,2.11,1.56,3.25,3.65,3.34,6.4Z" style="fill:#000222;"/><path d="M87.76,90.87c-1.41,0-2.74,0-4.14,0-1.68-3.97-3.38-7.98-5.08-12-5.18,0-10.34,0-15.58,0-1.77,3.98-3.56,7.99-5.36,12.01-.94,0-1.84,0-2.86,0,5.62-12.71,11.21-25.36,16.89-38.2,5.41,12.81,10.76,25.47,16.14,38.19Zm-10.25-14.55c-2.19-5.17-4.33-10.23-6.53-15.42-2.33,5.21-4.6,10.28-6.9,15.42,4.51,0,8.91,0,13.42,0Z" style="fill:#000222;"/><path d="M308.37,88.19c5.22,0,10.38,0,15.59,0,0,.9-.34,2.67-.34,2.67,0,0-12.59,0-19.1,0,0-12.36,0-24.71,0-37.1,6.34,0,12.65,0,19.02,0,0,.87-.34,2.66-.34,2.66,0,0-9.72,0-14.8,0,0,4.53,0,9.02,0,13.56,4.14,0,8.28,0,12.45,0,0,.86-.34,2.54-.34,2.54,0,0-7.94,0-12.12,0,0,5.24,0,10.41,0,15.66Z" style="fill:#000222;"/><path d="M297.9,53.77c0,.89,0,1.74,0,2.66-4.02,0-8.02,0-12.08,0,0,11.5,0,34.08,0,34.08l-3.82,.34s0-22.85,0-34.37c-4.08,0-8.1,0-12.17,0,0-.95,0-1.81,0-2.71,9.36,0,18.7,0,28.07,0Z" style="fill:#000222;"/><path d="M31.58,90.86c0-12.37,0-36.74,0-36.74,0,0,2.51-.34,3.84-.34,0,11.44,0,22.88,0,34.38,5.3,0,10.5,0,15.75,0,0,.92,0,1.79,0,2.71-6.49,0-13,0-19.59,0Z" style="fill:#000222;"/><polygon points="263.24 90.53 259.43 90.87 259.43 54.12 263.24 53.77 263.24 90.53" style="fill:#000222;"/></g><g><path d="M167.22,38.2l-4.78-.34s-7.58-10.33-11.32-15.59c-1.88,0-3.66,0-5.53,0,0,5.35,0,15.56,0,15.56l-3.88,.34s0-24.68,0-37.05c.07-.02,.15-.07,.24-.07,3.44,.03,6.88-.01,10.32,.13,2.29,.09,4.45,.79,6.33,2.17,2.19,1.61,3.2,3.84,3.46,6.49,.49,5.07-2.24,8.81-6.41,10.86-.2,.1-.4,.2-.67,.32,4.07,5.71,12.24,17.18,12.24,17.18Zm-21.61-18.31c1.49,0,2.94,.12,4.36-.03,2.07-.21,3.95-1,5.45-2.5,2.04-2.04,2.63-4.54,2.31-7.35-.37-3.3-2.52-5.79-5.81-6.26-2.05-.29-4.15-.19-6.22-.26-.03,0-.07,.05-.09,.07,0,5.45,0,10.9,0,16.32Z" style="fill:#000222;"/><path d="M59.37,8.77c-1.42,.18-2.81,.35-4.26,.53-.11-.69-.18-1.38-.34-2.05-.55-2.32-1.86-3.99-4.27-4.5-2.41-.51-4.66-.17-6.39,1.8-1.76,2-1.79,5.56-.08,7.97,1.11,1.56,2.6,2.69,4.2,3.7,2.41,1.53,4.83,3.03,7.19,4.62,1.7,1.15,3.19,2.55,4.09,4.45,1.82,3.85,.68,8.34-2.95,10.9-4.54,3.2-9.44,3.6-14.45,1.27-3.38-1.57-5.28-5.12-5.03-8.89,1.42-.17,2.85-.33,4.29-.5,.13,.95,.21,1.87,.37,2.77,.75,4.14,3.7,6.12,7.96,5.83,2.28-.16,4.16-1.04,5.48-2.93,1.84-2.63,1.49-6.26-.99-8.6-1.39-1.31-3.01-2.37-4.6-3.45-1.64-1.12-3.4-2.08-5.05-3.18-2.18-1.46-3.99-3.28-4.99-5.76-1.76-4.35,.12-9.12,4.5-11.14,3.65-1.68,7.36-1.72,11,.11,2.68,1.35,4.53,4.36,4.32,7.07Z" style="fill:#000222;"/><path d="M16.89,0c5.42,12.82,10.77,25.48,16.14,38.2-1.42,0-2.74,0-4.14,0-1.69-3.98-3.39-7.99-5.09-12-5.19,0-10.35,0-15.58,0-1.78,3.99-3.57,8-5.36,12.02-.95,0-1.85,0-2.86,0C5.62,25.49,11.22,12.83,16.89,0Zm5.89,23.64c-2.18-5.14-4.32-10.22-6.52-15.42-2.33,5.22-4.6,10.29-6.9,15.42,4.51,0,8.91,0,13.42,0Z" style="fill:#000222;"/><path d="M116.49,35.52c5.22,0,10.38,0,15.59,0,0,.9-.34,2.67-.34,2.67,0,0-12.59,0-19.1,0,0-12.36,0-24.71,0-37.1,6.34,0,12.65,0,19.02,0,0,.87-.34,2.66-.34,2.66,0,0-9.72,0-14.8,0,0,4.53,0,9.02,0,13.56,4.14,0,8.28,0,12.45,0,0,.86-.34,2.54-.34,2.54,0,0-7.94,0-12.12,0,0,5.24,0,10.41,0,15.66Z" style="fill:#000222;"/><path d="M69.81,1.44l3.8-.34s0,11.06,0,16.64c7.32,0,15.71,0,23.05,0,0-5.54,0-16.3,0-16.3l3.84-.34V37.84s-3.81,.34-3.81,.34c0,0,0-11.78,0-17.74-7.32,0-15.72,0-23.04,0,0,5.91,0,17.41,0,17.41l-3.83,.34V1.44Z" style="fill:#000222;"/></g><g><path d="M146.46,145.61c-8.97-9.87-17.85-19.63-26.85-29.53v28.52h-2.82v-37.16c8.96,9.83,17.85,19.59,26.86,29.47v-28.46h2.82v37.15Z" style="fill:#000222;"/><path d="M70.98,127.88c3.97,5.57,7.93,11.1,11.93,16.7h-4.66c-3.68-5.18-7.38-10.38-11.03-15.51h-5.39v15.53h-3.78v-36.15c.21,0,.4-.02,.59-.02,2.73,0,5.46-.03,8.19,0,2.34,.04,4.61,.43,6.7,1.59,2.62,1.45,3.98,3.71,4.35,6.65,.6,4.77-1.84,8.74-6.26,10.89-.19,.09-.38,.19-.63,.32Zm-9.12-17.24v16.23c1.84,.01,3.63,.1,5.39-.33,4.25-1.03,6.74-4.37,6.49-8.72-.21-3.59-2.08-6.06-5.51-6.73-2.06-.4-4.21-.31-6.37-.45Z" style="fill:#000222;"/><path d="M208.62,144.62h-4.66c-3.7-5.2-7.4-10.42-11.05-15.55h-5.4v15.51h-3.76v-36.16c.17,0,.35,0,.54,0,2.73,0,5.46-.03,8.19,0,2.24,.03,4.42,.4,6.44,1.43,2.95,1.51,4.44,3.99,4.67,7.24,.35,4.93-2.02,8.25-6.27,10.44-.2,.1-.41,.2-.66,.33,3.98,5.57,7.93,11.11,11.95,16.74Zm-21.11-17.68c1.49-.06,2.92-.03,4.32-.2,2.01-.24,3.85-.99,5.31-2.46,2.04-2.06,2.59-4.59,2.19-7.37-.44-3.03-2.16-4.97-5.11-5.78-2.2-.6-4.44-.28-6.71-.37v16.18Z" style="fill:#000222;"/><path d="M211.92,135.23c1.41-.17,2.77-.34,4.18-.51,.11,.9,.18,1.79,.35,2.65,.46,2.39,1.57,4.36,3.98,5.21,2.6,.93,5.2,.86,7.55-.75,2.97-2.03,3.63-6.27,1.38-9.07-.88-1.09-1.98-2.05-3.13-2.85-2.01-1.41-4.12-2.66-6.2-3.96-2.2-1.37-4.1-3.04-5.32-5.37-2.07-3.92-.87-8.54,2.84-11,3.68-2.44,9.09-2.45,12.74-.04,2.11,1.4,3.43,3.83,3.41,6.38-.69,.09-1.4,.18-2.11,.27-.69,.09-1.39,.17-2.08,.25-.13-.73-.2-1.45-.38-2.14-.76-2.93-2.89-4.47-5.91-4.41-5.63,.11-6.88,5.77-4.83,9.19,1.09,1.82,2.75,3.04,4.5,4.16,2.61,1.67,5.23,3.31,7.76,5.1,1.81,1.28,3.2,2.98,3.71,5.22,.84,3.68-.36,6.66-3.26,9-4.04,3.27-10.99,3.59-15.29,.72-3.18-2.12-4.11-5.7-3.87-8.07Z" style="fill:#000222;"/><path d="M52.09,144.61h-4.04c-1.64-3.87-3.29-7.77-4.95-11.68h-15.21c-1.73,3.89-3.47,7.78-5.22,11.68h-2.8c5.48-12.38,10.94-24.72,16.47-37.21,5.27,12.46,10.5,24.81,15.75,37.2Zm-23.09-14.17h13.08c-2.12-5.02-4.22-9.97-6.36-15.03-2.27,5.08-4.49,10.04-6.72,15.03Z" style="fill:#000222;"/><path d="M0,108.43c.35,0,.66,0,.96,0,2.81,0,5.61-.03,8.42,0,2.04,.03,4.03,.38,5.89,1.25,2.77,1.3,4.4,3.46,4.9,6.46,.63,3.81-.43,7.03-3.39,9.59-1.7,1.47-3.69,2.41-5.87,2.87-1.49,.32-3.04,.41-4.57,.54-.85,.07-1.7,.01-2.6,.01v15.43H0v-36.16Zm3.77,18.54c1.82-.13,3.61-.16,5.37-.39,2.07-.28,3.86-1.22,5.22-2.83,1.66-1.95,2.08-4.26,1.75-6.73-.45-3.36-2.38-5.51-5.71-6.02-1.87-.29-3.8-.17-5.71-.24-.3-.01-.61,0-.92,0v16.21Z" style="fill:#000222;"/><path d="M156.31,108.46h18.6v2.59h-14.8v13.19h12.14v2.49h-12.13v15.27h15.19v2.6h-19v-36.14Z" style="fill:#000222;"/><path d="M94.68,111.07h-11.84v-2.59h27.38v2.57h-11.79v33.55h-3.75v-33.53Z" style="fill:#000222;"/></g><path d="M339.36,73.98v-2.2h9.54v-9.62h2.33v9.59h9.55v2.23h-9.54v9.57h-2.33v-9.56h-9.55Z" style="fill:#000222;"/></svg>