<?xml version="1.0" encoding="UTF-8"?><svg id="Layer_1" xmlns="http://www.w3.org/2000/svg" viewBox="0 0 387.18 167.67"><rect x="154.01" width=".99" height="167.67" style="fill:#fff;"/><g><g><path d="M288.81,96.44c-3.01-7.18-6-14.28-9-21.43,.82,0,1.56,0,2.33,0,2.33,5.56,4.66,11.12,7.03,16.78,1.08-2.53,2.12-4.96,3.16-7.4-1.31-3.12-2.61-6.22-3.92-9.37h2.23c.92,2.2,5.94,14.01,7.15,16.81,2.42-5.67,4.8-11.25,7.18-16.82,.54,0,1.06,0,1.64,0-3.07,7.14-6.11,14.23-9.2,21.43-1.41-3.43-2.79-6.76-4.2-10.18-1.48,3.43-2.91,6.77-4.38,10.18Z" style="fill:#fff;"/><path d="M258.9,95.83s0-14.21,0-21.39c5.16,5.67,10.26,11.28,15.44,16.97,0-5.52,0-16.19,0-16.19l1.62-.19s0,14.2,0,21.39c-5.15-5.67-10.26-11.29-15.44-16.99,0,5.54,0,16.22,0,16.22l-1.61,.19Z" style="fill:#fff;"/><path d="M309.82,75.2l2.13-.19s0,6.21,0,9.34c4.1,0,7.53,0,11.65,0,0-3.11,0-9.14,0-9.14l2.15-.19v20.62s-2.14,.19-2.14,.19c0,0,0-6.61,0-9.95-4.11,0-7.54,0-11.64,0,0,3.32,0,9.76,0,9.76l-2.15,.19v-20.62Z" style="fill:#fff;"/><path d="M251.47,75.2l1.63-.19s.02,8.36,.02,12.33c0,1.48-.14,2.94-.65,4.34-.96,2.67-2.91,4.1-5.68,4.47-1.5,.2-3,.13-4.45-.32-2.41-.75-3.85-2.43-4.36-4.87-.18-.85-.26-1.73-.26-2.6-.03-4.32,0-13.15,0-13.15l2.13-.19s-.02,8.71,.03,12.82c.01,1.04,.17,2.1,.44,3.11,.47,1.8,1.66,2.95,3.53,3.32,1.43,.28,2.86,.3,4.24-.2,1.8-.66,2.75-2.06,3.12-3.87,.15-.73,.23-1.48,.24-2.23,.02-4.15,.01-12.76,.01-12.76Z" style="fill:#fff;"/><path d="M198.25,79.32c-.83,.1-1.62,.2-2.43,.31-.07-.41-.11-.81-.2-1.2-.32-1.4-1.33-2.37-2.61-2.53-1.74-.22-3.09,.33-3.71,1.61-.67,1.37-.52,2.71,.34,3.96,.6,.87,1.45,1.48,2.33,2.04,1.35,.86,2.71,1.7,4.03,2.59,.95,.64,1.79,1.43,2.29,2.5,.87,1.84,.51,3.98-.91,5.47-2.3,2.41-6.73,2.87-9.48,.99-1.45-.99-2.29-2.74-2.2-4.62,.8-.09,1.6-.19,2.38-.28,.12,.7,.19,1.39,.37,2.04,.55,2.09,2.22,2.87,4.16,2.79,1.08-.04,2.05-.37,2.82-1.15,1.46-1.47,1.46-3.81-.11-5.32-.8-.77-1.75-1.38-2.67-2.01-.89-.61-1.84-1.12-2.74-1.72-1.23-.82-2.24-1.84-2.81-3.22-.92-2.23-.17-4.51,1.92-5.95,2-1.38,5.4-1.33,7.35,.11,1.19,.88,1.82,2.05,1.87,3.59Z" style="fill:#fff;"/><path d="M234.93,95.83c-.79,0-1.54,0-2.32,0-.94-2.23-1.9-4.47-2.85-6.73-2.91,0-5.8,0-8.74,0-1,2.23-2,4.48-3,6.74h-1.61c3.15-7.13,6.29-14.23,9.47-21.43,3.04,7.19,6.04,14.29,9.05,21.42Zm-5.75-8.16c-1.23-2.9-2.43-5.74-3.66-8.65-1.31,2.92-2.58,5.77-3.87,8.65,2.53,0,5,0,7.53,0Z" style="fill:#fff;"/><path d="M358.7,94.33c2.93,0,5.82,0,8.75,0,0,.5-.19,1.5-.19,1.5,0,0-7.06,0-10.72,0,0-6.93,0-13.86,0-20.82,3.56,0,7.1,0,10.67,0,0,.49-.19,1.5-.19,1.5,0,0-5.45,0-8.31,0,0,2.54,0,5.06,0,7.61,2.32,0,4.64,0,6.99,0,0,.49-.19,1.43-.19,1.43,0,0-4.46,0-6.8,0,0,2.94,0,5.84,0,8.79Z" style="fill:#fff;"/><path d="M352.83,75.01v1.49c-2.26,0-4.5,0-6.78,0,0,6.45,0,19.12,0,19.12l-2.15,.19s0-12.82,0-19.28c-2.29,0-4.54,0-6.83,0,0-.53,0-1.02,0-1.52,5.25,0,10.49,0,15.75,0Z" style="fill:#fff;"/><path d="M203.42,95.82c0-6.94,0-20.61,0-20.61,0,0,1.41-.19,2.16-.19,0,6.42,0,12.84,0,19.29,2.97,0,5.89,0,8.83,0v1.52c-3.64,0-7.29,0-10.99,0Z" style="fill:#fff;"/><polygon points="333.39 95.64 331.24 95.83 331.24 75.21 333.39 75.02 333.39 95.64" style="fill:#fff;"/></g><g><path d="M279.51,66.28l-2.68-.19s-4.25-5.8-6.35-8.75h-3.1c0,3,0,8.73,0,8.73l-2.18,.19s0-13.85,0-20.79c.04-.01,.09-.04,.13-.04,1.93,.02,3.86,0,5.79,.07,1.28,.05,2.49,.45,3.55,1.22,1.23,.9,1.8,2.16,1.94,3.64,.28,2.85-1.26,4.94-3.6,6.09-.11,.06-.23,.11-.38,.18,2.28,3.2,6.87,9.64,6.87,9.64Zm-12.12-10.27c.83,0,1.65,.07,2.45-.02,1.16-.12,2.22-.56,3.06-1.4,1.14-1.14,1.48-2.55,1.3-4.12-.21-1.85-1.41-3.25-3.26-3.51-1.15-.16-2.33-.11-3.49-.15-.02,0-.04,.03-.05,.04,0,3.06,0,6.11,0,9.16Z" style="fill:#fff;"/><path d="M219.01,49.77c-.8,.1-1.58,.2-2.39,.3-.06-.39-.1-.78-.19-1.15-.31-1.3-1.04-2.24-2.39-2.52-1.35-.28-2.61-.09-3.59,1.01-.99,1.12-1,3.12-.04,4.47,.62,.88,1.46,1.51,2.36,2.08,1.35,.86,2.71,1.7,4.03,2.59,.95,.64,1.79,1.43,2.29,2.49,1.02,2.16,.38,4.68-1.65,6.11-2.54,1.79-5.29,2.02-8.11,.71-1.9-.88-2.96-2.87-2.82-4.99,.8-.09,1.6-.19,2.41-.28,.07,.53,.12,1.05,.21,1.56,.42,2.32,2.08,3.44,4.46,3.27,1.28-.09,2.33-.58,3.07-1.64,1.03-1.48,.84-3.51-.55-4.82-.78-.73-1.69-1.33-2.58-1.94-.92-.63-1.91-1.17-2.83-1.78-1.22-.82-2.24-1.84-2.8-3.23-.98-2.44,.07-5.12,2.52-6.25,2.05-.94,4.13-.96,6.17,.06,1.5,.75,2.54,2.45,2.42,3.97Z" style="fill:#fff;"/><path d="M195.18,44.85c3.04,7.19,6.04,14.3,9.06,21.43h-2.32c-.95-2.23-1.9-4.48-2.85-6.73-2.91,0-5.8,0-8.74,0-1,2.24-2,4.49-3.01,6.74-.53,0-1.04,0-1.61,0,3.15-7.13,6.29-14.24,9.48-21.44Zm3.3,13.26c-1.22-2.89-2.42-5.73-3.66-8.65-1.31,2.93-2.58,5.78-3.87,8.65,2.53,0,5,0,7.53,0Z" style="fill:#fff;"/><path d="M251.05,64.78c2.93,0,5.82,0,8.75,0,0,.5-.19,1.5-.19,1.5,0,0-7.06,0-10.72,0,0-6.93,0-13.86,0-20.82,3.56,0,7.1,0,10.67,0,0,.49-.19,1.5-.19,1.5,0,0-5.45,0-8.31,0,0,2.54,0,5.06,0,7.61,2.32,0,4.64,0,6.99,0,0,.49-.19,1.43-.19,1.43,0,0-4.46,0-6.8,0,0,2.94,0,5.84,0,8.79Z" style="fill:#fff;"/><path d="M224.86,45.66l2.13-.19s0,6.21,0,9.34c4.1,0,8.81,0,12.93,0,0-3.11,0-9.14,0-9.14l2.15-.19v20.62s-2.14,.19-2.14,.19c0,0,0-6.61,0-9.95-4.11,0-8.82,0-12.93,0,0,3.32,0,9.76,0,9.76l-2.15,.19v-20.62Z" style="fill:#fff;"/></g><g><path d="M267.87,126.54c-5.03-5.54-10.02-11.02-15.06-16.56v16h-1.58v-20.85c5.03,5.52,10.02,10.99,15.07,16.53v-15.97h1.58v20.84Z" style="fill:#fff;"/><path d="M225.52,116.6c2.23,3.12,4.45,6.23,6.69,9.37h-2.62c-2.06-2.9-4.14-5.82-6.19-8.7h-3.02v8.71h-2.12v-20.28c.12,0,.22-.01,.33-.01,1.53,0,3.06-.02,4.59,0,1.31,.02,2.59,.24,3.76,.89,1.47,.81,2.23,2.08,2.44,3.73,.34,2.67-1.03,4.9-3.51,6.11-.11,.05-.21,.11-.35,.18Zm-5.12-9.67v9.1c1.03,0,2.04,.05,3.03-.18,2.38-.58,3.78-2.45,3.64-4.89-.12-2.02-1.17-3.4-3.09-3.78-1.15-.23-2.36-.18-3.57-.25Z" style="fill:#fff;"/><path d="M302.74,125.99h-2.62c-2.07-2.92-4.15-5.84-6.2-8.72h-3.03v8.7h-2.11v-20.29c.09,0,.2,0,.3,0,1.53,0,3.06-.02,4.59,0,1.26,.02,2.48,.22,3.61,.8,1.65,.85,2.49,2.24,2.62,4.06,.2,2.76-1.13,4.63-3.52,5.86-.11,.06-.23,.11-.37,.18,2.23,3.13,4.45,6.23,6.71,9.39Zm-11.84-9.92c.84-.03,1.64-.02,2.43-.11,1.13-.14,2.16-.56,2.98-1.38,1.15-1.15,1.45-2.57,1.23-4.13-.25-1.7-1.21-2.79-2.87-3.24-1.23-.34-2.49-.16-3.76-.21v9.08Z" style="fill:#fff;"/><path d="M304.59,120.72c.79-.1,1.56-.19,2.34-.29,.06,.51,.1,1,.19,1.49,.26,1.34,.88,2.44,2.23,2.93,1.46,.52,2.92,.48,4.24-.42,1.67-1.14,2.04-3.52,.77-5.09-.49-.61-1.11-1.15-1.76-1.6-1.13-.79-2.31-1.49-3.48-2.22-1.23-.77-2.3-1.71-2.99-3.01-1.16-2.2-.49-4.79,1.59-6.17,2.06-1.37,5.1-1.38,7.15-.02,1.18,.78,1.93,2.15,1.91,3.58-.39,.05-.79,.1-1.18,.15-.39,.05-.78,.09-1.17,.14-.07-.41-.11-.81-.21-1.2-.43-1.65-1.62-2.51-3.32-2.47-3.16,.06-3.86,3.24-2.71,5.16,.61,1.02,1.54,1.71,2.53,2.34,1.46,.94,2.94,1.86,4.35,2.86,1.02,.72,1.79,1.67,2.08,2.93,.47,2.07-.2,3.74-1.83,5.05-2.27,1.83-6.16,2.01-8.58,.41-1.78-1.19-2.31-3.2-2.17-4.53Z" style="fill:#fff;"/><path d="M214.92,125.98h-2.27c-.92-2.17-1.85-4.36-2.78-6.55h-8.53c-.97,2.18-1.95,4.37-2.93,6.56h-1.57c3.08-6.95,6.14-13.87,9.24-20.88,2.96,6.99,5.89,13.92,8.83,20.87Zm-12.95-7.95h7.34c-1.19-2.82-2.37-5.59-3.57-8.43-1.27,2.85-2.52,5.63-3.77,8.43Z" style="fill:#fff;"/><path d="M185.7,105.68c.19,0,.37,0,.54,0,1.57,0,3.15-.01,4.72,0,1.15,.01,2.26,.21,3.31,.7,1.55,.73,2.47,1.94,2.75,3.62,.35,2.14-.24,3.95-1.9,5.38-.95,.83-2.07,1.35-3.29,1.61-.84,.18-1.71,.23-2.56,.3-.47,.04-.96,0-1.46,0v8.66h-2.1v-20.29Zm2.11,10.4c1.02-.07,2.02-.09,3.01-.22,1.16-.16,2.16-.68,2.93-1.59,.93-1.1,1.17-2.39,.98-3.78-.25-1.89-1.33-3.09-3.2-3.38-1.05-.16-2.13-.1-3.2-.13-.17,0-.34,0-.52,0v9.09Z" style="fill:#fff;"/><path d="M273.39,105.7h10.43v1.45h-8.31v7.4h6.81v1.39h-6.8v8.57h8.52v1.46h-10.66v-20.28Z" style="fill:#fff;"/><path d="M238.82,107.16h-6.64v-1.45h15.36v1.44h-6.61v18.82h-2.1v-18.81Z" style="fill:#fff;"/></g><path d="M375.16,85.75v-1.23h5.35v-5.4h1.31v5.38h5.36v1.25h-5.35v5.37h-1.31v-5.37h-5.36Z" style="fill:#fff;"/></g><g><path d="M99.6,91.29h-5.25v17.33h5.24c0-1.39,0-12.09,0-17.33Z" style="fill:#fff;"/><polygon points="48.47 87.86 17.21 87.86 18.46 84.77 29.41 84.77 29.42 84.77 35.04 84.78 43.48 84.79 43.48 84.79 48.47 87.86" style="fill:#fff;"/><polygon points="79.32 84.74 79.32 84.76 78.96 84.76 78.96 84.73 79.32 84.74" style="fill:#fff;"/><rect x="81.64" y="84.74" width=".44" height=".02" style="fill:#fff;"/><path d="M94.37,87.86l-12.73-.02h0s.47,0,.47,0v7.4h-3.14v-7.4h-10.26s-3.14-3.14-3.14-3.14h13.39v.04h.36v-.02h-.36v-7.37h3.13v7.37h-.44v.02h.44v-.02l12.28,.03,5.58-.02c10.84-.05,12.97-2.55,14.87-4.78,2.32-2.73,2.55-6.51,2.08-9.97-.63-4.71-3.33-7.71-7.99-8.43-2.61-.4-5.32-.25-7.98-.33-.43-.02-.86,0-1.29,0l-.02,19.91h-5.28l.02-23.18h1.35c3.93,0,7.86-.03,11.79,.02,2.85,.03,5.63,.52,8.25,1.75,3.87,1.82,6.15,4.85,6.85,9.04,.89,5.33-.56,10.4-4.67,14-2.91,2.56-8.32,5.09-18.31,5.09l-5.26,.02Z" style="fill:#fff;"/><polygon points="79.32 84.74 79.32 84.76 78.96 84.76 78.96 84.73 79.32 84.74" style="fill:#fff;"/><rect x="81.64" y="84.74" width=".44" height=".02" style="fill:#fff;"/><path d="M33.48,81.12h-5.62c-1.89-4.45-3.76-8.89-5.68-13.41-2.42,5.37-4.76,10.65-7.11,15.93l-.3,.67-.21,.46c-.46,1.03-.93,2.08-1.39,3.1-.13,.3-.25,.58-.4,.89l-1.55,3.46c-2.42,5.47-4.86,10.9-7.3,16.36H0c7.67-17.34,15.29-34.61,23.04-52.05,3.5,8.22,6.95,16.41,10.44,24.59Z" style="fill:#fff;"/><path d="M35.04,84.78h-5.62s0,0,0,0h0s5.62,0,5.62,0c0,0,0,0,0,.02Z" style="fill:#fff;"/><path d="M66.77,98.95c-.07,.32-.19,.65-.28,.97-.77,2.19-2.23,4.14-4.32,5.81-3.05,2.49-7.33,3.75-11.56,3.75-2.14,0-4.28-.32-6.23-.98-1.32-.44-2.51-1.02-3.6-1.74-1.77-1.21-3.07-2.72-3.9-4.35-1.49-2.53-3.69-8.58-4.39-10.2l-.44-1.09h5.67c1.48,3.45,4.02,9.31,4.15,9.57,.14,.28,.3,.56,.47,.84,1.14,1.86,2.63,3.39,4.93,4.21,1.51,.54,3.05,.84,4.54,.84,2.09,0,4.13-.56,6.04-1.86,1.37-.97,2.39-2.26,3.04-3.72,.19-.48,.37-1,.49-1.51,.1-.35,.16-.7,.18-1.05,.12-.78,.1-1.58-.05-2.37-.04-.35-.11-.7-.23-1.05-.28-1.07-.79-2.09-1.54-3.03-.86-1.09-1.92-2.09-3.04-2.97-.23-.21-.49-.4-.74-.56-.18-.16-.4-.3-.58-.44-.07-.05-.14-.1-.21-.14,0-.02-.02-.02-.02-.02-1.53-1.09-3.11-2.09-4.72-3.07l-.02-.02c-.31-.18-.61-.36-.91-.55-.3-.21-.63-.4-.93-.58-.63-.37-1.24-.77-1.86-1.14-3.1-1.93-5.74-4.28-7.46-7.53-.72-1.35-1.16-2.79-1.33-4.21-.18-1.4-.09-2.8,.26-4.14,.09-.35,.18-.7,.3-1.02,.81-2.39,2.42-4.48,4.74-6.04,2.57-1.7,5.78-2.56,8.97-2.56s6.3,.84,8.86,2.53c1.09,.72,2.07,1.65,2.81,2.74v.02c.4,.54,.72,1.09,.97,1.68,.29,.6,.49,1.23,.66,1.85,.23,.86,.32,1.74,.32,2.63-.96,.12-1.96,.25-2.93,.37-1.01,.12-1.98,.23-2.91,.32-.1-.47-.17-.95-.26-1.42-.09-.54-.18-1.05-.3-1.58-.06-.23-.11-.44-.23-.65-.14-.44-.3-.86-.51-1.25-1.32-2.77-3.88-4.23-7.27-4.23h-.26c-4.58,.09-7.11,2.81-7.83,6.02-.05,.21-.09,.44-.11,.65-.14,.88-.14,1.77-.02,2.65,.09,.6,.23,1.23,.41,1.81,.21,.61,.47,1.16,.79,1.7,1.54,2.58,3.86,4.3,6.3,5.85,2.58,1.66,5.13,3.28,7.64,4.96,.29,.16,.56,.35,.84,.55,.28,.19,.55,.37,.84,.55,.02,0,.02,.02,.02,.02,.51,.33,1.02,.68,1.5,1.03,.86,.6,1.66,1.3,2.35,2.04l.02,.02c.18,.18,.35,.4,.49,.58,.16,.19,.32,.37,.44,.56,.67,.93,1.21,1.92,1.56,3.04,.14,.35,.23,.72,.32,1.09v.07c.07,.28,.12,.53,.17,.79,.3,1.77,.25,3.39-.12,4.93Z" style="fill:#fff;"/></g></svg>