<?xml version="1.0" encoding="UTF-8"?><svg id="Layer_1" xmlns="http://www.w3.org/2000/svg" viewBox="0 0 163.59 163.6"><path d="M81.8,163.6C36.69,163.6,0,126.9,0,81.8S36.69,0,81.8,0s81.8,36.69,81.8,81.8-36.69,81.8-81.8,81.8Zm0-159.51C38.95,4.09,4.09,38.95,4.09,81.8s34.86,77.71,77.71,77.71,77.71-34.86,77.71-77.71S124.65,4.09,81.8,4.09Z" style="fill:#fff;"/><g><path d="M122.38,89.71h-5.53v18.25h5.52c0-1.46,0-12.73,0-18.25Z" style="fill:#fff;"/><polygon points="68.54 86.11 35.63 86.11 36.95 82.85 48.47 82.85 48.48 82.85 54.4 82.86 63.28 82.87 63.29 82.87 68.54 86.11" style="fill:#fff;"/><polygon points="101.03 82.81 101.03 82.84 100.64 82.84 100.64 82.8 101.03 82.81" style="fill:#fff;"/><rect x="103.47" y="82.81" width=".47" height=".03" style="fill:#fff;"/><path d="M116.87,86.11l-13.4-.02h0s.49,0,.49,0v7.79h-3.3v-7.79h-10.81s-3.31-3.3-3.31-3.3h14.1v.04h.38v-.03h-.38v-7.76h3.29v7.76h-.47v.03h.47v-.03l12.93,.03,5.88-.03c11.42-.05,13.66-2.69,15.66-5.03,2.44-2.88,2.69-6.86,2.19-10.5-.67-4.96-3.5-8.12-8.41-8.87-2.75-.43-5.6-.26-8.41-.35-.45-.02-.9,0-1.36,0l-.02,20.96h-5.55l.02-24.41h1.43c4.14,0,8.27-.03,12.41,.02,3,.03,5.93,.55,8.68,1.84,4.08,1.92,6.48,5.1,7.21,9.52,.93,5.61-.59,10.95-4.91,14.74-3.07,2.69-8.76,5.35-19.28,5.35l-5.54,.02Z" style="fill:#fff;"/><polygon points="101.03 82.81 101.03 82.84 100.64 82.84 100.64 82.8 101.03 82.81" style="fill:#fff;"/><rect x="103.47" y="82.81" width=".47" height=".03" style="fill:#fff;"/><path d="M52.76,79h-5.92c-1.99-4.69-3.96-9.36-5.98-14.12-2.54,5.65-5.01,11.21-7.49,16.77l-.32,.71-.23,.48c-.48,1.08-.98,2.18-1.47,3.26-.14,.32-.27,.61-.42,.93l-1.63,3.64c-2.54,5.75-5.12,11.48-7.69,17.23h-4.11c8.08-18.25,16.1-36.44,24.26-54.81,3.69,8.66,7.32,17.28,10.99,25.89Z" style="fill:#fff;"/><path d="M54.4,82.86h-5.92s0,0,0,0h0s5.92,0,5.92,0c0,0,0,0,0,.02Z" style="fill:#fff;"/><path d="M87.81,97.78c-.08,.34-.2,.68-.29,1.03-.81,2.3-2.35,4.36-4.55,6.12-3.21,2.62-7.71,3.94-12.17,3.94-2.25,0-4.5-.34-6.56-1.03-1.39-.46-2.64-1.08-3.79-1.83-1.86-1.28-3.23-2.86-4.11-4.58-1.57-2.67-3.89-9.03-4.62-10.74l-.46-1.14h5.97c1.56,3.63,4.24,9.81,4.37,10.07,.15,.29,.32,.59,.49,.88,1.2,1.96,2.77,3.57,5.19,4.43,1.59,.57,3.21,.88,4.78,.88,2.2,0,4.35-.59,6.36-1.96,1.44-1.03,2.52-2.38,3.2-3.92,.2-.51,.39-1.05,.52-1.59,.1-.37,.17-.73,.19-1.1,.13-.83,.1-1.66-.05-2.49-.04-.37-.12-.73-.24-1.1-.29-1.13-.83-2.2-1.62-3.19-.9-1.15-2.03-2.2-3.2-3.13-.24-.23-.52-.42-.78-.59-.19-.17-.42-.32-.61-.46-.08-.05-.15-.1-.23-.15,0-.02-.03-.02-.03-.02-1.61-1.15-3.28-2.2-4.97-3.24l-.02-.03c-.33-.19-.64-.38-.96-.58-.32-.22-.66-.42-.98-.61-.67-.39-1.3-.81-1.96-1.2-3.26-2.03-6.05-4.5-7.86-7.93-.76-1.42-1.23-2.94-1.4-4.43-.19-1.48-.09-2.94,.28-4.36,.09-.37,.19-.73,.32-1.08,.85-2.52,2.54-4.72,5-6.36,2.71-1.78,6.09-2.69,9.45-2.69s6.63,.88,9.32,2.67c1.15,.76,2.18,1.73,2.96,2.89v.02c.42,.57,.76,1.15,1.03,1.77,.3,.63,.52,1.29,.69,1.95,.24,.91,.34,1.83,.34,2.77-1.01,.13-2.06,.27-3.09,.39-1.06,.13-2.08,.24-3.06,.34-.1-.49-.18-1-.28-1.49-.09-.57-.19-1.1-.32-1.67-.07-.24-.12-.46-.24-.68-.15-.47-.32-.9-.54-1.32-1.39-2.92-4.09-4.45-7.66-4.45h-.28c-4.82,.09-7.49,2.96-8.25,6.34-.05,.22-.09,.47-.12,.68-.15,.93-.15,1.86-.02,2.79,.09,.63,.24,1.29,.43,1.9,.23,.64,.49,1.23,.83,1.79,1.62,2.72,4.06,4.53,6.64,6.16,2.72,1.74,5.4,3.45,8.05,5.22,.3,.17,.59,.37,.88,.58,.29,.2,.58,.39,.88,.58,.02,0,.02,.03,.02,.03,.53,.35,1.08,.72,1.58,1.08,.91,.63,1.74,1.37,2.48,2.15l.03,.02c.19,.19,.37,.42,.52,.61,.17,.2,.34,.39,.46,.59,.71,.98,1.28,2.03,1.64,3.2,.15,.37,.24,.76,.34,1.15v.08c.08,.29,.13,.56,.18,.83,.32,1.86,.27,3.57-.13,5.19Z" style="fill:#fff;"/></g></svg>