<?xml version="1.0" standalone="no"?>
<!DOCTYPE svg PUBLIC "-//W3C//DTD SVG 20010904//EN"
 "http://www.w3.org/TR/2001/REC-SVG-20010904/DTD/svg10.dtd">
<svg version="1.0" xmlns="http://www.w3.org/2000/svg"
 width="556.000000pt" height="556.000000pt" viewBox="0 0 556.000000 556.000000"
 preserveAspectRatio="xMidYMid meet">
<metadata>
Created by potrace 1.14, written by Peter Selinger 2001-2017
</metadata>
<g transform="translate(0.000000,556.000000) scale(0.100000,-0.100000)"
fill="#000000" stroke="none">
<path d="M10 2780 l0 -2780 2770 0 2770 0 0 2780 0 2780 -2770 0 -2770 0 0
-2780z m3115 2411 c254 -44 463 -112 685 -222 1023 -508 1554 -1635 1293
-2744 -141 -599 -518 -1133 -1043 -1478 -58 -38 -172 -102 -255 -142 -462
-228 -971 -302 -1485 -214 -1012 172 -1821 991 -1984 2009 -67 416 -21 869
128 1252 329 851 1080 1438 1986 1554 157 20 520 12 675 -15z"/>
<path d="M2550 5094 c-441 -52 -765 -165 -1084 -378 -160 -107 -253 -185 -391
-327 -348 -360 -564 -808 -631 -1309 -18 -140 -18 -439 1 -587 123 -962 842
-1748 1796 -1963 211 -48 530 -64 757 -39 524 57 1033 311 1404 698 182 190
302 364 419 606 260 540 298 1144 108 1719 -195 592 -618 1075 -1184 1351
-219 107 -425 172 -670 210 -95 15 -449 28 -525 19z m-836 -1846 c86 -202 156
-370 156 -373 0 -3 -39 -4 -87 -3 l-87 3 -86 202 c-47 112 -87 203 -90 203 -3
0 -133 -286 -289 -635 l-284 -635 -59 0 c-32 0 -58 3 -58 6 0 4 154 354 341
778 188 424 348 786 356 805 8 19 18 30 23 25 4 -5 78 -174 164 -376z m836
371 c81 -12 175 -55 229 -104 46 -41 96 -138 105 -201 7 -48 7 -48 -109 -59
l-70 -7 -18 73 c-9 42 -29 91 -45 114 -77 110 -274 130 -381 38 -58 -49 -83
-108 -83 -194 0 -85 30 -155 96 -223 24 -24 149 -114 277 -199 247 -163 292
-201 333 -282 91 -184 28 -388 -155 -506 -158 -101 -415 -113 -583 -27 -52 27
-132 103 -163 155 -20 35 -153 346 -153 359 0 2 40 4 88 4 l88 0 63 -147 c35
-82 77 -169 93 -195 56 -90 160 -141 283 -141 171 -1 305 122 305 279 0 151
-66 226 -371 416 -85 54 -177 117 -205 142 -195 172 -216 427 -48 586 110 104
259 146 424 119z m1804 -43 c140 -39 245 -125 287 -234 30 -80 37 -219 14
-298 -49 -172 -179 -290 -377 -344 -121 -32 -228 -40 -560 -40 l-318 0 0 -115
0 -115 -50 0 -50 0 0 115 0 115 -162 0 -162 0 -43 42 c-24 23 -43 46 -43 50 0
4 92 8 205 8 l205 0 0 116 0 115 48 -3 47 -3 3 -112 3 -113 334 0 c347 0 452
8 541 41 71 27 146 96 181 167 26 52 28 67 28 167 0 132 -18 193 -75 258 -66
74 -117 90 -301 95 l-156 4 -6 -143 c-4 -79 -7 -219 -7 -311 l0 -168 -80 0
-80 0 0 366 0 366 258 -5 c198 -3 271 -8 316 -21z m-2096 -863 l77 -48 -479
-3 c-264 -1 -481 0 -484 2 -2 3 4 25 13 50 l18 46 389 0 390 0 76 -47z m1682
-433 l0 -270 -80 0 -80 0 0 270 0 270 80 0 80 0 0 -270z"/>
</g>
</svg>
